<svg width="161" height="160" viewBox="0 0 161 160" fill="none" xmlns="http://www.w3.org/2000/svg">
<path fill-rule="evenodd" clip-rule="evenodd" d="M0.666687 15C0.666687 6.71573 7.38242 0 15.6667 0H145.667C153.951 0 160.667 6.71573 160.667 15V145C160.667 153.284 153.951 160 145.667 160H15.6667C7.38242 160 0.666687 153.284 0.666687 145V15ZM58.3656 28L46.0031 50.4792L52.3188 61.8542L64.6813 41H108.756L101.5 28H58.3656ZM95.9906 45.3333L108.756 66.5938L86.9875 106H101.5L123 67L111.041 45.3333H95.9906ZM80 49.6667C70.5142 49.6667 62.8 57.4407 62.8 67C62.8 76.5593 70.5142 84.3333 80 84.3333C89.4858 84.3333 97.2 76.5593 97.2 67C97.2 57.4407 89.4858 49.6667 80 49.6667ZM43.5844 54.9479L37 67L58.3656 106H82.15L89.2719 93H64.5469L43.5844 54.9479ZM80 58.3333C84.7429 58.3333 88.6 62.2203 88.6 67C88.6 71.7797 84.7429 75.6667 80 75.6667C75.2571 75.6667 71.4 71.7797 71.4 67C71.4 62.2203 75.2571 58.3333 80 58.3333ZM71.303 130.119H68.0815C67.519 128.27 66.0871 127.145 63.982 127.145C61.161 127.145 59.1241 129.327 59.1241 133.256C59.1241 137.21 61.1269 139.401 64.0502 139.401C66.6752 139.401 68.3371 137.824 68.3883 135.335H64.3656V132.864H71.4479V134.96C71.4479 139.46 68.3542 142.239 64.0332 142.239C59.2178 142.239 55.9451 138.812 55.9451 133.29C55.9451 127.665 59.3712 124.307 63.9394 124.307C67.8002 124.307 70.7661 126.693 71.303 130.119ZM82.0566 124.307C85.9259 124.307 88.9089 126.557 89.4458 130.435H86.2583C85.8918 128.347 84.2299 127.145 82.1077 127.145C79.2526 127.145 77.2413 129.335 77.2413 133.273C77.2413 137.278 79.2697 139.401 82.0992 139.401C84.1873 139.401 85.8577 138.25 86.2583 136.205L89.4458 136.222C88.96 139.554 86.2072 142.239 82.0566 142.239C77.4543 142.239 74.0623 138.906 74.0623 133.273C74.0623 127.631 77.4969 124.307 82.0566 124.307ZM95.5033 142H92.3414V124.545H98.8869C102.901 124.545 105.04 126.991 105.04 130.324C105.04 133.682 102.875 136.102 98.8442 136.102H95.5033V142ZM95.5033 127.188V133.503H98.4181C100.77 133.503 101.819 132.182 101.819 130.324C101.819 128.466 100.77 127.188 98.4011 127.188H95.5033Z" fill="#1C1C1C"/>
</svg>
