<svg width="161" height="160" viewBox="0 0 161 160" fill="none" xmlns="http://www.w3.org/2000/svg">
<path fill-rule="evenodd" clip-rule="evenodd" d="M15.3334 0C7.0491 0 0.333374 6.71573 0.333374 15V145C0.333374 153.284 7.0491 160 15.3334 160H145.333C153.618 160 160.333 153.284 160.333 145V15C160.333 6.71573 153.618 0 145.333 0H15.3334ZM41.9663 114.871C42.8976 114.33 43.7203 113.674 44.4269 112.932L69.7846 127.573C69.4951 128.559 69.3398 129.603 69.3398 130.684C69.3398 136.763 74.2538 141.677 80.3333 141.677C86.4128 141.677 91.3268 136.732 91.3268 130.684C91.3268 129.472 91.1318 128.308 90.7714 127.219L115.981 112.663C116.743 113.519 117.653 114.268 118.7 114.871C123.961 117.895 130.702 116.099 133.726 110.839C136.781 105.578 134.986 98.8685 129.694 95.813C128.764 95.2788 127.789 94.895 126.796 94.6541V65.3535C127.8 65.1132 128.786 64.7269 129.725 64.187C134.986 61.1315 136.781 54.422 133.757 49.1615C130.702 43.901 123.992 42.1055 118.732 45.1295C117.785 45.6792 116.951 46.3472 116.237 47.1037L90.8726 32.4591C91.1682 31.4637 91.3268 30.4089 91.3268 29.3165C91.3268 23.237 86.4128 18.323 80.3333 18.323C74.2538 18.323 69.3398 23.237 69.3398 29.3165C69.3398 30.403 69.4968 31.4522 69.7893 32.4428L44.418 47.0914C43.7064 46.3399 42.8761 45.6762 41.9348 45.1295C36.6743 42.1055 29.9333 43.901 26.9093 49.1615C23.8853 54.422 25.6808 61.163 30.9413 64.187C31.8805 64.7269 32.8669 65.1132 33.8708 65.3535V94.6535C32.8783 94.8943 31.9029 95.2783 30.9728 95.813C25.7123 98.8685 23.9168 105.578 26.9408 110.839C29.9648 116.099 36.6743 117.895 41.9663 114.871ZM72.4249 36.9589L47.0073 51.6342C47.799 54.3988 47.5125 57.4662 45.9668 60.155C44.4192 62.8473 41.8979 64.632 39.0998 65.3275V94.6676C39.245 94.7034 39.3894 94.7422 39.5329 94.7839L72.7389 37.2711C72.6322 37.1691 72.5275 37.0651 72.4249 36.9589ZM77.2709 39.8792L44.0661 97.39C44.8054 98.0953 45.4588 98.9162 45.9983 99.845C46.533 100.775 46.917 101.751 47.1578 102.743H113.509C113.75 101.75 114.134 100.774 114.668 99.845C115.206 98.9101 115.861 98.0847 116.604 97.3763L83.4051 39.8765C82.4305 40.1588 81.3999 40.31 80.3333 40.31C79.2702 40.31 78.2427 40.1597 77.2709 39.8792ZM87.9347 37.2644L121.141 94.7782C121.282 94.7375 121.424 94.6997 121.567 94.6647V65.3275C118.769 64.6319 116.248 62.8473 114.7 60.155C113.157 57.4715 112.869 54.4109 113.655 51.6506L88.2299 36.9712C88.1334 37.0707 88.035 37.1685 87.9347 37.2644ZM80.3333 119.69C83.5575 119.69 86.4539 121.072 88.4634 123.277L113.723 108.693C113.647 108.455 113.58 108.215 113.52 107.972H47.1438C47.1086 108.114 47.0705 108.256 47.0297 108.397L72.4134 123.053C74.412 120.979 77.2198 119.69 80.3333 119.69Z" fill="#1C1C1C"/>
</svg>
