<svg width="283" height="355" viewBox="0 0 283 355" fill="none" xmlns="http://www.w3.org/2000/svg">
<path fill-rule="evenodd" clip-rule="evenodd" d="M185.861 185.126C215.519 182.322 248.271 178.102 267.86 175.578C274.72 174.694 279.966 174.018 282.899 173.684C280.449 173.389 276.26 172.839 270.785 172.12L270.784 172.12L270.783 172.12C251.287 169.56 215.479 164.859 183.724 161.899C208.007 144.642 234.261 124.611 249.964 112.63L249.964 112.63L249.965 112.629C255.463 108.434 259.668 105.226 262.041 103.47C259.771 104.44 255.869 106.058 250.768 108.173L250.767 108.174L250.766 108.174C234.987 114.716 207.739 126.014 181.858 137.596C197.118 106.846 215.724 62.274 225.642 38.5142C228.307 32.1314 230.344 27.2505 231.521 24.543C230.045 26.512 227.485 29.8508 224.139 34.2145L224.137 34.2172L224.133 34.2219L224.12 34.2397L224.11 34.2518L224.109 34.2534L224.109 34.2535L224.108 34.2547C208.622 54.4513 176.367 96.518 156.711 126.425C154.786 91.996 148.28 41.5044 144.869 15.0389C143.985 8.17903 143.309 2.93334 142.975 0C142.681 2.44495 142.133 6.61998 141.416 12.077L141.414 12.0983L141.412 12.1135L141.411 12.1155L141.411 12.1157L141.411 12.1172C138.098 37.3505 131.198 89.9078 129.129 125.636C110.247 96.7823 79.367 56.3092 63.181 35.0948C58.9856 29.5959 55.7773 25.391 54.0212 23.0178C54.991 25.2874 56.6089 29.1894 58.7238 34.2903L58.7246 34.292L58.7246 34.2921C68.5718 58.0415 89.1924 107.774 105.341 139.722C79.6469 128.1 51.8664 116.503 34.8105 109.383C28.4277 106.719 23.5468 104.681 20.8393 103.504C22.8124 104.984 26.161 107.551 30.5381 110.907L30.5481 110.915L30.5497 110.916C45.8132 122.62 73.5695 143.902 99.1277 162.085C68.9293 164.885 35.0892 169.245 15.0389 171.829C8.17903 172.713 2.93334 173.389 0 173.723C2.44497 174.017 6.62004 174.565 12.0771 175.282L12.0983 175.285L12.1135 175.287L12.1155 175.287C31.1859 177.791 65.8651 182.344 97.0907 185.311C72.3379 202.835 45.2119 223.531 29.1397 235.794C23.6408 239.99 19.4359 243.198 17.0627 244.954C19.3323 243.984 23.2344 242.366 28.3352 240.251L28.3369 240.251L28.3375 240.25C46.9417 232.536 81.4895 218.212 110.943 204.605C94.8274 233.932 71.3589 290.153 59.7636 317.93L59.7634 317.931L59.763 317.932L59.7625 317.933C57.0983 324.315 55.061 329.195 53.8839 331.903C55.3636 329.929 57.9316 326.58 61.2885 322.202L61.296 322.192C76.8953 301.848 109.513 259.309 129.125 229.363C131.105 263.769 137.538 313.693 140.922 339.958L140.922 339.96L140.922 339.96L140.922 339.961C141.806 346.821 142.482 352.067 142.817 355C143.111 352.554 143.659 348.377 144.376 342.917L144.379 342.898L144.38 342.886L144.38 342.885C147.718 317.466 154.696 264.317 156.708 228.577C175.626 257.384 206.16 297.405 222.223 318.459L222.224 318.459C226.419 323.958 229.628 328.163 231.384 330.536C230.415 328.269 228.799 324.371 226.687 319.277L226.683 319.269L226.68 319.262C216.025 293.564 192.756 237.443 176.188 206.351C203.252 218.739 233.678 231.44 251.885 239.04L251.885 239.04L251.886 239.04C258.269 241.705 263.149 243.742 265.857 244.92C263.882 243.439 260.53 240.869 256.148 237.509L256.147 237.508L256.146 237.507L256.145 237.506L256.145 237.506L256.143 237.504C240.538 225.539 211.879 203.565 185.861 185.126ZM152.196 177.432C152.196 181.266 149.551 184.503 145.928 185.53C155.435 184.636 163.338 178.618 166.467 170.455C162.447 173.008 157.514 174.892 152.043 175.849C152.143 176.362 152.196 176.891 152.196 177.432ZM120.282 169.952C123.274 178.37 131.304 184.618 141.006 185.53C137.383 184.503 134.738 181.266 134.738 177.432C134.738 176.855 134.798 176.292 134.912 175.747C129.313 174.695 124.3 172.67 120.282 169.952Z" fill="url(#paint0_linear)"/>
<defs>
<linearGradient id="paint0_linear" x1="234.892" y1="432.577" x2="28.0042" y2="-198.589" gradientUnits="userSpaceOnUse">
<stop offset="0.2077" stop-color="#4C4D61"/>
<stop offset="0.858113" stop-color="#28292C" stop-opacity="0"/>
</linearGradient>
</defs>
</svg>
