<svg width="160" height="160" viewBox="0 0 160 160" fill="none" xmlns="http://www.w3.org/2000/svg">
<path fill-rule="evenodd" clip-rule="evenodd" d="M15 0C6.71573 0 0 6.71573 0 15V145C0 153.284 6.71573 160 15 160H145C153.284 160 160 153.284 160 145V15C160 6.71573 153.284 0 145 0H15ZM80.6932 123.727V82.8182H91.1477V123.727C91.1193 134.977 83.5909 141.795 72.3693 141.795C62.1705 141.795 54.3295 136.284 54.3295 125.545H64.8125C64.8977 130.261 68.0511 133.131 72.767 133.131C77.8239 133.131 80.6648 129.864 80.6932 123.727ZM144.344 98.8125H134.202C133.662 93.8693 129.514 90.9432 123.236 90.9432C116.645 90.9432 112.724 94.1534 112.696 98.5284C112.639 103.386 117.81 105.403 122.582 106.54L128.037 107.903C136.787 109.977 145.111 114.58 145.139 124.665C145.111 134.92 137.014 141.881 123.065 141.881C109.514 141.881 100.906 135.375 100.48 123.812H110.849C111.276 129.92 116.389 132.875 122.98 132.875C129.855 132.875 134.571 129.551 134.599 124.58C134.571 120.062 130.423 118.102 124.145 116.511L117.526 114.807C107.952 112.335 102.014 107.534 102.014 99.1818C101.986 88.8977 111.162 82.0227 123.378 82.0227C135.764 82.0227 144.145 88.983 144.344 98.8125Z" fill="#1C1C1C"/>
</svg>
