<svg width="160" height="160" viewBox="0 0 160 160" fill="none" xmlns="http://www.w3.org/2000/svg">
<path fill-rule="evenodd" clip-rule="evenodd" d="M15 0C6.71573 0 0 6.71573 0 15V145C0 153.284 6.71573 160 15 160H145C153.284 160 160 153.284 160 145V15C160 6.71573 153.284 0 145 0H15ZM76.9297 62.0003H53.0274V97.4888H77.1787V95.6H55.2184V79.993H75.635V78.1043H55.2184V63.889H76.9297V62.0003ZM81.6106 62.0003H79.071L91.5201 79.2475L78.1746 97.4888H80.7641L92.8646 80.8877L104.915 97.4888H107.555L94.3087 79.2475L120.014 42.1758L104.368 62.0003L92.8646 77.6073L81.6106 62.0003ZM108.501 62.0003V63.889H121V97.4888H123.191V63.889H135.739V62.0003H108.501ZM23.1245 62.0003H25.8633L63.63 118.186L48.0228 97.4888L25.4152 64.6843L25.3156 97.4888H23.1245V62.0003ZM136.302 94.2396C136.302 94.6852 135.972 95.0301 135.519 95.0301C135.071 95.0301 134.735 94.6852 134.735 94.2396C134.735 93.794 135.071 93.4492 135.519 93.4492C135.972 93.4492 136.302 93.794 136.302 94.2396ZM140.017 95.1255C138.626 95.1255 137.672 94.2661 137.672 92.9505H138.844C138.86 93.5818 139.324 94.0062 140.006 94.0062C140.768 94.0062 141.2 93.5499 141.2 92.6958V87.2847H142.393V92.7011C142.393 94.2396 141.498 95.1255 140.017 95.1255ZM146.891 95.1255C145.186 95.1255 144.04 94.2502 143.955 92.8815H145.138C145.239 93.6083 145.953 94.0698 146.982 94.0698C147.941 94.0698 148.644 93.5765 148.644 92.8974C148.644 92.3139 148.197 91.9637 147.179 91.725L146.188 91.4863C144.797 91.1627 144.163 90.4942 144.163 89.3696C144.163 88.0062 145.282 87.099 146.96 87.099C148.522 87.099 149.662 88.0062 149.732 89.2953H148.57C148.458 88.5897 147.84 88.1494 146.944 88.1494C146.001 88.1494 145.372 88.6003 145.372 89.29C145.372 89.8364 145.777 90.1494 146.779 90.3828L147.627 90.5897C149.204 90.9558 149.854 91.5924 149.854 92.7436C149.854 94.2078 148.714 95.1255 146.891 95.1255Z" fill="#1C1C1C"/>
</svg>
