<svg width="160" height="160" viewBox="0 0 160 160" fill="none" xmlns="http://www.w3.org/2000/svg">
<path fill-rule="evenodd" clip-rule="evenodd" d="M0 15C0 6.71573 6.71573 0 15 0H145C153.284 0 160 6.71573 160 15V145C160 153.284 153.284 160 145 160H15C6.71573 160 0 153.284 0 145V15ZM80 112.827C78.7267 112.827 77.5383 112.486 76.4348 111.889L65.1449 105.152C63.4472 104.214 64.2961 103.873 64.8054 103.702C67.0973 102.935 67.5217 102.764 69.8986 101.4C70.1532 101.229 70.4928 101.315 70.7474 101.485L79.4058 106.687C79.7453 106.858 80.1698 106.858 80.4244 106.687L114.294 86.9876C114.634 86.817 114.803 86.4759 114.803 86.0495V46.7353C114.803 46.3089 114.634 45.9678 114.294 45.7972L80.4244 26.1828C80.0849 26.0123 79.6605 26.0123 79.4058 26.1828L45.5362 45.7972C45.1967 45.9678 45.0269 46.3942 45.0269 46.7353V86.0495C45.0269 86.3906 45.1967 86.817 45.5362 86.9876L54.7888 92.3602C59.7971 94.9186 62.9379 91.9338 62.9379 88.949V50.1465C62.9379 49.6349 63.3623 49.1232 63.9565 49.1232H68.2857C68.795 49.1232 69.3043 49.5496 69.3043 50.1465V88.949C69.3043 95.6861 65.6542 99.609 59.2878 99.609C57.3354 99.609 55.8075 99.609 51.4783 97.477L42.5652 92.3602C40.3582 91.081 39 88.6932 39 86.1348V46.8206C39 44.2622 40.3582 41.8744 42.5652 40.5952L76.4348 20.8954C78.5569 19.7015 81.4431 19.7015 83.5652 20.8954L117.435 40.5952C119.642 41.8744 121 44.2622 121 46.8206V86.1348C121 88.6932 119.642 91.081 117.435 92.3602L83.5652 112.06C82.4617 112.572 81.1884 112.827 80 112.827ZM90.441 85.7936C75.5859 85.7936 72.53 78.9712 72.53 73.1722C72.53 72.6605 72.9545 72.1488 73.5487 72.1488H77.9627C78.4721 72.1488 78.8965 72.4899 78.8965 73.0016C79.5756 77.5215 81.5279 79.7387 90.5259 79.7387C97.6563 79.7387 100.712 78.1184 100.712 74.2808C100.712 72.0635 99.8634 70.4432 88.7433 69.3346C79.4907 68.3965 73.7184 66.3498 73.7184 58.9304C73.7184 52.0227 79.4907 47.9292 89.1677 47.9292C100.033 47.9292 105.381 51.6816 106.06 59.8685C106.06 60.1243 105.975 60.3801 105.805 60.636C105.636 60.8066 105.381 60.9771 105.126 60.9771H100.712C100.288 60.9771 99.8633 60.636 99.7785 60.2096C98.7598 55.5192 96.1284 53.9841 89.1677 53.9841C81.3582 53.9841 80.4244 56.7131 80.4244 58.7598C80.4244 61.233 81.528 62.0005 92.0538 63.365C102.495 64.7294 107.418 66.6909 107.418 74.025C107.333 81.5296 101.222 85.7936 90.441 85.7936ZM59.9205 124.545H63.0653V142H60.2528L52.0284 130.111H51.8835V142H48.7216V124.545H51.5511L59.767 136.443H59.9205V124.545ZM78.3572 135.506C78.3572 139.554 75.9197 142.256 72.0845 142.256C68.2493 142.256 65.8118 139.554 65.8118 135.506C65.8118 131.449 68.2493 128.739 72.0845 128.739C75.9197 128.739 78.3572 131.449 78.3572 135.506ZM68.9396 135.497C68.9396 137.892 69.9794 139.784 72.1016 139.784C74.1896 139.784 75.2294 137.892 75.2294 135.497C75.2294 133.102 74.1896 131.185 72.1016 131.185C69.9794 131.185 68.9396 133.102 68.9396 135.497ZM89.5838 139.938C89.098 140.892 88.0838 142.23 85.8338 142.23C82.7486 142.23 80.4389 139.784 80.4389 135.472C80.4389 131.108 82.8168 128.739 85.8423 128.739C88.152 128.739 89.1151 130.128 89.5838 131.074H89.7116V124.545H92.8054V142H89.7713V139.938H89.5838ZM83.5838 135.455C83.5838 137.909 84.6577 139.699 86.6946 139.699C88.6634 139.699 89.7713 137.994 89.7713 135.455C89.7713 132.915 88.6804 131.27 86.6946 131.27C84.6406 131.27 83.5838 133.017 83.5838 135.455ZM107.582 138.489C107.036 140.764 104.94 142.256 101.888 142.256C97.9425 142.256 95.5305 139.639 95.5305 135.531C95.5305 131.491 97.9766 128.739 101.727 128.739C104.948 128.739 107.71 130.759 107.71 135.352V136.298H98.5902C98.6158 138.54 99.9368 139.852 101.931 139.852C103.261 139.852 104.283 139.273 104.701 138.165L107.582 138.489ZM101.769 131.142C99.9283 131.142 98.6925 132.548 98.5987 134.219H104.752C104.735 132.438 103.542 131.142 101.769 131.142Z" fill="#1C1C1C"/>
</svg>
