<svg width="161" height="160" viewBox="0 0 161 160" fill="none" xmlns="http://www.w3.org/2000/svg">
<path fill-rule="evenodd" clip-rule="evenodd" d="M0.666687 15C0.666687 6.71573 7.38242 0 15.6667 0H145.667C153.951 0 160.667 6.71573 160.667 15V145C160.667 153.284 153.951 160 145.667 160H15.6667C7.38242 160 0.666687 153.284 0.666687 145V15ZM146.793 80.0136C146.793 71.1862 135.738 62.8206 118.79 57.6329C122.701 40.3584 120.963 26.6149 113.303 22.2148C111.545 21.1869 109.49 20.6978 107.246 20.6938V20.6667C99.777 20.6667 89.999 25.9902 80.1124 35.225C70.2257 26.0446 60.4478 20.7753 52.9785 20.7753V20.8025C50.6969 20.8025 48.6327 21.2914 46.8401 22.3235C39.2078 26.7236 37.4967 40.4399 41.435 57.66C24.5408 62.875 13.5406 71.2134 13.5406 80.0136C13.5406 88.8409 24.5952 97.2065 41.5437 102.394C37.6325 119.669 39.3708 133.412 47.0302 137.812C48.7957 138.844 50.8599 139.333 53.1414 139.333C60.6107 139.333 70.3887 134.01 80.2753 124.775C90.162 133.955 99.9399 139.225 107.409 139.225C109.691 139.225 111.755 138.736 113.548 137.704C121.18 133.304 122.891 119.587 118.953 102.367C135.793 97.1794 146.793 88.8138 146.793 80.0136ZM84.431 39.4621C93.2713 31.2455 101.57 26.738 107.219 26.7236V26.7507C108.468 26.7507 109.473 26.9952 110.315 27.4569C114.009 29.5755 115.612 37.6423 114.362 48.0179C114.064 50.571 113.575 53.2599 112.977 56.0032C107.654 54.6995 101.841 53.6945 95.73 53.0427C92.0632 48.0179 88.2607 43.4548 84.431 39.4621ZM52.9785 26.8322C58.6008 26.8322 66.9393 31.3138 75.7938 39.4893C71.9912 43.482 68.1887 48.0179 64.5762 53.0427C58.4378 53.6945 52.6254 54.6995 47.3018 56.0304C46.6771 53.3143 46.2154 50.6796 45.8894 48.1537C44.6129 37.7781 46.1882 29.7113 49.8549 27.5656C50.6698 27.0767 51.7291 26.8594 52.9785 26.8594V26.8322ZM111.429 61.8972C110.424 65.4009 109.175 69.0134 107.762 72.6258C106.649 70.4529 105.481 68.28 104.204 66.1071C102.955 63.9342 101.624 61.8157 100.293 59.7514C104.15 60.3218 107.871 61.028 111.429 61.8972ZM98.9893 90.8237C96.8707 94.4904 94.6979 97.9671 92.4435 101.199C88.3965 101.552 84.2952 101.742 80.1667 101.742C76.0654 101.742 71.9641 101.552 67.9442 101.226C65.6898 97.9942 63.4898 94.5448 61.3712 90.9052C59.307 87.3471 57.4329 83.7347 55.7217 80.0951C57.4057 76.4555 59.307 72.8159 61.3441 69.2578C63.4626 65.5911 65.6355 62.1144 67.8899 58.8823C71.9369 58.5292 76.0382 58.3391 80.1667 58.3391C84.268 58.3391 88.3693 58.5292 92.3892 58.8551C94.6435 62.0873 96.8436 65.5367 98.9621 69.1763C101.026 72.7344 102.9 76.3468 104.612 79.9864C102.9 83.626 101.026 87.2656 98.9893 90.8237ZM107.762 87.2928C109.229 90.9323 110.478 94.5719 111.511 98.1029C107.952 98.972 104.204 99.7054 100.32 100.276C101.651 98.1843 102.982 96.0386 104.231 93.8386C105.481 91.6657 106.649 89.4656 107.762 87.2928ZM80.221 116.274C77.695 113.666 75.1691 110.76 72.6702 107.582C75.1147 107.691 77.6135 107.772 80.1395 107.772C82.6927 107.772 85.2186 107.718 87.6903 107.582C85.2458 110.76 82.7198 113.666 80.221 116.274ZM60.0132 100.276C56.1563 99.7054 52.4352 98.9992 48.8772 98.13C49.8821 94.6263 51.1315 91.0138 52.5439 87.4014C53.6575 89.5743 54.8254 91.7472 56.102 93.9201C57.3786 96.0929 58.6823 98.2115 60.0132 100.276ZM80.0852 43.7536C82.6112 46.361 85.1372 49.2673 87.636 52.4451C85.1915 52.3365 82.6927 52.255 80.1667 52.255C77.6135 52.255 75.0876 52.3093 72.6159 52.4451C75.0604 49.2673 77.5864 46.361 80.0852 43.7536ZM59.986 59.7514C58.6551 61.8428 57.3242 63.9886 56.0748 66.1886C54.8254 68.3615 53.6575 70.5344 52.5439 72.7073C51.0772 69.0677 49.8278 65.4281 48.7957 61.8972C52.3538 61.0552 56.102 60.3218 59.986 59.7514ZM35.4053 93.7571C25.7903 89.6558 19.5704 84.2779 19.5704 80.0136C19.5704 75.7493 25.7903 70.3443 35.4053 66.2701C37.7411 65.2651 40.2943 64.3688 42.9289 63.5268C44.4771 68.8504 46.5141 74.3913 49.0401 80.0679C46.5413 85.7174 44.5314 91.2311 43.0104 96.5275C40.3214 95.6855 37.7683 94.7621 35.4053 93.7571ZM50.0179 132.57C46.324 130.452 44.7215 122.385 45.9709 112.009C46.2697 109.456 46.7586 106.767 47.3561 104.024C52.6797 105.328 58.4922 106.333 64.6034 106.985C68.2701 112.009 72.0727 116.572 75.9024 120.565C67.0479 128.795 58.7366 133.304 53.0871 133.304C51.8649 133.276 50.8327 133.032 50.0179 132.57ZM114.444 111.874C115.721 122.249 114.145 130.316 110.478 132.462C109.664 132.951 108.604 133.168 107.355 133.168C101.733 133.168 93.3941 128.686 84.5396 120.511C88.3422 116.518 92.1447 111.982 95.7571 106.957C101.896 106.306 107.708 105.301 113.032 103.97C113.656 106.713 114.145 109.348 114.444 111.874ZM124.901 93.7571C122.565 94.7621 120.012 95.6584 117.377 96.5004C115.829 91.1768 113.792 85.6359 111.266 79.9593C113.765 74.3098 115.775 68.7961 117.296 63.4997C119.985 64.3417 122.538 65.2651 124.928 66.2701C134.543 70.3714 140.763 75.7493 140.763 80.0136C140.736 84.2779 134.516 89.6829 124.901 93.7571ZM92.5522 80.0136C92.5522 86.8689 86.9949 92.4262 80.1396 92.4262C73.2843 92.4262 67.727 86.8689 67.727 80.0136C67.727 73.1583 73.2843 67.601 80.1396 67.601C86.9949 67.601 92.5522 73.1583 92.5522 80.0136Z" fill="#1C1C1C"/>
</svg>
