<svg width="160" height="160" viewBox="0 0 160 160" fill="none" xmlns="http://www.w3.org/2000/svg">
<path fill-rule="evenodd" clip-rule="evenodd" d="M15 0C6.71573 0 0 6.71573 0 15V145C0 153.284 6.71573 160 15 160H145C153.284 160 160 153.284 160 145V15C160 6.71573 153.284 0 145 0H15ZM134.582 100.047C134.582 100.047 153.35 56.4939 95.3275 17C95.3275 17 119.045 46.93 106.946 80.5067C106.946 80.5067 64.3227 50.1638 42.8737 28.4216C42.8737 28.4216 69.6849 67.0898 79.2407 75.0023C79.2407 75.0023 63.2227 66.677 26.1682 35.0956C26.1682 35.0956 68.7225 90.6898 88.7278 102.318C88.7278 102.318 58.4104 123.028 14 93.786C14 93.786 37.3052 135 86.5966 135C99.5806 135 107.172 131.071 113.45 127.821C117.875 125.531 121.647 123.578 126.195 123.578C137.607 123.578 144.413 135 144.413 135C151.081 118.693 134.582 100.047 134.582 100.047Z" fill="#1C1C1C"/>
</svg>
