<svg width="161" height="160" viewBox="0 0 161 160" fill="none" xmlns="http://www.w3.org/2000/svg">
<path fill-rule="evenodd" clip-rule="evenodd" d="M15.3334 0C7.0491 0 0.333374 6.71573 0.333374 15V145C0.333374 153.284 7.0491 160 15.3334 160H145.333C153.618 160 160.333 153.284 160.333 145V15C160.333 6.71573 153.618 0 145.333 0H15.3334ZM64.4981 89.6534H46.5152V80.8182H92.9356V89.6534H74.9527V139H64.4981V89.6534ZM143.646 96.8125H133.504C132.964 91.8693 128.816 88.9432 122.538 88.9432C115.947 88.9432 112.027 92.1534 111.998 96.5284C111.941 101.386 117.112 103.403 121.885 104.54L127.339 105.903C136.089 107.977 144.413 112.58 144.441 122.665C144.413 132.92 136.316 139.881 122.367 139.881C108.816 139.881 100.208 133.375 99.7822 121.812H110.152C110.578 127.92 115.691 130.875 122.282 130.875C129.157 130.875 133.873 127.551 133.902 122.58C133.873 118.062 129.725 116.102 123.447 114.511L116.828 112.807C107.254 110.335 101.316 105.534 101.316 97.1818C101.288 86.8977 110.464 80.0227 122.68 80.0227C135.066 80.0227 143.447 86.983 143.646 96.8125Z" fill="#1C1C1C"/>
</svg>
